PathFileType	4	(X/Y/Z)	0331.trc
DataRate	CameraRate	NumFrames	NumMarkers	Units	OrigDataRate	OrigDataStartFrame	OrigNumFrames
120	120	4	27	m	120	755	1006
Frame#	Time	RHip			RKnee			RAnkle			RBigToe			RSmallToe			RHeel			LHip			LKnee			LAnkle			LBigToe			LSmallToe			LHeel			Nose			REye			LEye			RShoulder			RElbow			RWrist			RThumb			RIndex			RPinky			LShoulder			LElbow			LWrist			LThumb			LIndex			LPinky		
		X	Y	Z	X	Y	Z	X	Y	Z	X	Y	Z	X	Y	Z	X	Y	Z	X	Y	Z	X	Y	Z	X	Y	Z	X	Y	Z	X	Y	Z	X	Y	Z	X	Y	Z	X	Y	Z	X	Y	Z	X	Y	Z	X	Y	Z	X	Y	Z	X	Y	Z	X	Y	Z	X	Y	Z	X	Y	Z	X	Y	Z	X	Y	Z	X	Y	Z	X	Y	Z	X	Y	Z
758	6.316666666666666	0.2342486348467652	0.9910052493009524	0.8604467892818574	0.1337355744674797	0.9594939694646172	0.4466688004591948	0.2118338329654251	1.0944477440572078	0.0819135063169696	0.1052435036843703	0.9652498052457766	0.0118629931715425	0.0939931407512717	1.02344886270169	0.0233182984527893	0.2478344992675369	1.1194238966875192	0.0331144811575717	0.4363210097982286	0.9294388211510756	0.8500248732888075	0.3816377239861145	0.8962298189360345	0.4153599535016657	0.5645137572595925	1.1527794218152447	0.1649063362672637	0.4991482370663574	1.0988787154844526	0.0104097661909738	0.5497572111977743	1.0967876221186983	0.0234508731443516	0.591414548163001	1.2059025100258045	0.1480592967687337	0.2318519963023083	0.6484407395631345	1.4120083786915971	0.2013566861939895	0.6621977320187395	1.442541914566877	0.24623490048114	0.6279005621238489	1.4433525317625648	0.1573289767869819	0.958429313346758	1.312597523590364	0.0870872364854641	1.0577853391342609	1.0501684163060945	-0.0141673019131513	0.996892005097211	0.8394695531358728	-0.0268692030353196	0.9429702825760208	0.7817080105644187	-0.0563592841054525	0.9508212428143648	0.7566391035544026	-0.0350741248092025	1.0062071859435366	0.7452945185896669	0.4839187132701104	0.7544612124389314	1.3156227107000482	0.5928784201450596	0.7228990267261372	1.047293485939906	0.6211780642638939	0.5543144565917562	0.867163376371447	0.5810613543146048	0.4915865961700038	0.8288168581224017	0.6037943652166233	0.46528509367244	0.8108368290919926	0.6386782943097778	0.5123830549419983	0.7853753418047856
759	6.325	0.2318531530072757	0.9864623115253706	0.8593946909339171	0.1307528061509315	0.9570933673747168	0.4448717178442409	0.2117990236410103	1.0943190079438596	0.0815178942499128	0.1045863022981833	0.9662071565925904	0.0115352348666138	0.0933277592558934	1.0247517123057066	0.0227459770270109	0.2480577096589386	1.118842656492268	0.0328658485147575	0.4326340346794672	0.92269907828291	0.8483204844978338	0.3710594083762951	0.8809362580233072	0.4139384181877267	0.5579198328559792	1.141435777801112	0.1719089224550543	0.4956218205971114	1.0952468966946467	0.0117055159342354	0.5453413076987548	1.09159365367266	0.0259493809110103	0.5851908574666116	1.19502051223715	0.1575364108387199	0.2281848632960667	0.64219156701473	1.410049328580545	0.1978692476832673	0.6552688107315732	1.4404408391010777	0.2426473508861765	0.6219063222866228	1.4413291348071235	0.1530634075450977	0.95137826411032	1.311036867775612	0.0796869100306367	1.0483959606198727	1.0484865901653864	-0.0207789721677764	0.983921795254456	0.8386396559449257	-0.0341334848814498	0.9300139726210744	0.7817749562290944	-0.0632179172288155	0.9373939650791792	0.7567660612510771	-0.0420655025083969	0.9925989196423268	0.7450305158854585	0.4800949289604926	0.74967739335397	1.3142047928488767	0.5915278897985579	0.7187117180350813	1.0474076133242771	0.6258675815794662	0.5522137448831692	0.8673931886944162	0.586231620634737	0.4889483108601082	0.8282858974565237	0.6102780210421718	0.4636163817980211	0.8103107309224958	0.646146398496317	0.5116642363162849	0.7857810266307728
760	6.333333333333333	0.2295241279334258	0.9819292303947372	0.8583541140828841	0.128049386883273	0.9548100652309508	0.4433144405285619	0.2117450970723124	1.0941963977310247	0.0811328306698058	0.1040186984533173	0.9670412002444526	0.0112339929898009	0.0928154856019503	1.0257841364136968	0.0221967265763073	0.2482206128727292	1.1183282344762	0.0326202311851988	0.4288065349161905	0.9156551913719332	0.8466712511592096	0.3605533285298855	0.8654299645633005	0.4129101223280299	0.5506346381670515	1.1293265813003246	0.178495981898113	0.4910263081257174	1.0897955305473743	0.0133193701782546	0.5398299938644646	1.084676792399195	0.0286840270779965	0.5782854314633284	1.1833817564713731	0.166332181587755	0.2247347084840552	0.6356993307732438	1.408152759605044	0.1946284871752876	0.6480323190541797	1.4384210497811516	0.2392889515197007	0.6156874165377227	1.439401016944299	0.1489349278036955	0.9441194435836326	1.309569090794405	0.072211651441819	1.0386559291668258	1.0470988698729906	-0.0275391652297625	0.9703903787947804	0.8380615752989763	-0.0415285877327453	0.9164613915451676	0.7821565912933718	-0.0702317641981671	0.9232801702962	0.757330836673518	-0.04929996805164	0.9782932236866062	0.7451484755791398	0.4764660516947858	0.7447758758503783	1.312922257908078	0.5904881126790669	0.714446335686693	1.0477901412740875	0.6307416056628129	0.5500599692638767	0.867843561992923	0.5916900053707	0.4863475738211712	0.8279727408379739	0.6168882309589527	0.4617773594938437	0.8100054432481025	0.6537497716322166	0.5107448060817112	0.7864079446238267
761	6.341666666666667	0.2271804139902095	0.9772887538394494	0.8573230234743731	0.1257444185308949	0.952666343744252	0.4420143911480542	0.2116786226534741	1.0940733004196146	0.0807678492504091	0.1035589757871429	0.967670774489509	0.0109787454319192	0.0924915426084352	1.0264628739892008	0.0216893039155538	0.2483318311449167	1.117881417349423	0.0323653634950685	0.424800599615206	0.9082809127859908	0.8451236688065165	0.3502294214944584	0.8497279649204774	0.412268820636832	0.5426563204528513	1.116468152522464	0.184495693099963	0.4852495100814179	1.0823463646034324	0.0151967539676643	0.5331387727017015	1.0758883147448193	0.0315706026889997	0.5707052167396168	1.1709980654568397	0.1742011316634203	0.2215194256018254	0.6289353235743972	1.406358383684723	0.1916497516518957	0.6404768634888143	1.4365325324531644	0.2361702911923893	0.6092057007294204	1.437603372883307	0.1449607477458433	0.9366254086311512	1.3082384959269646	0.0647076516893698	1.028556880514497	1.046058118571472	-0.0344324046762202	0.9563203577222996	0.8378134369957589	-0.0489754214089227	0.9023243169003136	0.7829008589412104	-0.0773537205771691	0.908486285698923	0.7583777245475483	-0.0567748312198734	0.9633680650463448	0.7456971934658191	0.473044766295403	0.7397229278833068	1.3118180766810688	0.5897430755363886	0.7100806020045485	1.048435055495991	0.6357716166014074	0.547786125406281	0.8685123237671649	0.5974426164995124	0.4837512053726769	0.8278889400244908	0.6236043518883068	0.4597068295485778	0.8099296281457284	0.661437928892095	0.5095718499555095	0.787243566595892
